<svg width="700" height="700" viewBox="0 0 700 700" fill="none" xmlns="http://www.w3.org/2000/svg">
<mask id="mask0_1279_181" style="mask-type:luminance" maskUnits="userSpaceOnUse" x="273" y="0" width="154" height="700">
<path d="M273.438 0H426.038V700H273.438V0Z" fill="white"/>
</mask>
<g mask="url(#mask0_1279_181)">
<path d="M412.231 675.23V657.336H405.223V649.819H398.646V608.854H390.626V514.15H382.335V421.159H375.371V302.706H368.503V229.753H365.024V183.108H362.159V138.483H359.592V90.8396H357.726V42.9188H355.866V0H353.722V36.05H352.578V59.0844H349.719V113.59H346.001V163.654H341.706V238.904H330.265V387.399H323.396V486.967H313.093V590.829H301.361V649.819H294.784V657.336H287.777V675.23H273.492V700.015H426.515V675.23H412.231Z" fill="black"/>
</g>
</svg>
