<svg width="50" height="50" viewBox="0 0 50 50" fill="none" xmlns="http://www.w3.org/2000/svg">
<mask id="mask0_1279_204" style="mask-type:luminance" maskUnits="userSpaceOnUse" x="0" y="1" width="50" height="48">
<path d="M50 1.65039H-3.8147e-06V48.3504H50V1.65039Z" fill="white"/>
</mask>
<g mask="url(#mask0_1279_204)">
<path d="M49.075 1.6543H49.0182C48.9911 1.69128 48.9682 1.73294 48.9333 1.76315C48.4958 1.79336 47.9964 1.72669 47.6156 1.99023C47.3552 2.38867 47.1615 2.82773 46.8776 3.21107C46.7328 3.1944 46.6677 3.29805 46.6229 3.41263C46.0979 3.55117 45.401 3.40846 45.0266 3.88451C44.9391 3.97826 44.9427 4.14336 44.8115 4.19388C44.2286 4.34857 43.6167 4.41836 43.051 4.63555C42.7615 4.67721 43.0573 4.34023 43.0656 4.24857C42.5766 4.23971 42.1177 4.44336 41.6547 4.5819C41.3135 4.73294 40.8823 4.91419 40.7594 5.28607C40.2057 5.32669 39.7005 5.58607 39.1927 5.79492C38.8828 6.01315 38.5964 6.2668 38.251 6.43034C38.4042 6.59753 38.1198 6.63555 38.1333 6.81367C37.9797 7.14388 38.6583 6.94076 38.5901 7.19232C38.0302 7.16419 37.5208 7.43607 37.0437 7.69544C36.7604 7.97096 36.2708 8.08867 36.1625 8.51263C36.0161 8.59023 36.0198 8.7819 35.8474 8.82305C35.901 8.96263 36.4245 8.96576 36.1198 9.10742C36.2271 9.3069 36.3823 9.47878 36.5318 9.64805C36.5922 9.86471 36.2391 9.78659 36.1109 9.87617C35.1302 10.0538 34.2078 10.4803 33.3792 11.0262C33.2385 11.0991 33.4068 11.3194 33.2448 11.3512C32.4141 11.648 31.6031 12.0298 30.8573 12.4928C30.5839 12.597 30.3062 12.6954 30.0609 12.8585C29.2776 13.1548 28.5057 13.4809 27.7229 13.7793C27.1042 14.0772 26.5 14.423 25.9417 14.8199C25.8604 14.9137 25.8089 15.0319 25.7109 15.1095C25.5573 15.1949 25.6698 15.4194 25.551 15.5319C25.2234 15.8345 24.9323 16.173 24.625 16.4944C24.4964 16.7767 24.1708 16.8428 23.9422 17.0163C23.5042 17.2772 23.2469 17.7345 22.9104 18.1033C22.6635 18.4033 22.3766 18.6751 22.188 19.0194C21.8474 19.2038 21.5359 19.4382 21.2557 19.7074C20.9172 19.9741 20.5724 20.2501 20.4146 20.672C20.2984 21.0111 19.9062 21.159 19.7984 21.5059C19.624 21.7251 19.0672 21.5642 19.1755 21.9663C19.0135 22.323 18.5151 22.3819 18.4302 22.7777C18.401 22.9855 18.3302 23.2762 18.1104 23.3402C16.6031 23.4048 15.1062 23.6329 13.5969 23.6746C12.2161 23.7121 10.8354 23.6043 9.45677 23.6559C8.84843 23.5772 8.24427 23.7908 7.64219 23.7142C7.34323 23.8741 7.15052 24.171 6.84114 24.31C6.5875 24.4158 7.11302 24.6939 6.82031 24.8085C6.73281 25.0324 6.51927 25.1882 6.47135 25.421C6.63333 25.7303 7.04427 25.9793 7.39739 25.8215C7.58229 25.7736 7.52396 26.023 7.42448 26.0767C7.17708 26.2824 6.85156 26.3652 6.58958 26.5501C6.24531 26.6996 5.80677 26.8178 5.67396 27.2147C5.63281 27.4079 5.52448 27.6048 5.58489 27.8064C5.2776 28.0991 4.80208 28.4147 4.83541 28.9069C4.88958 29.2038 5.26094 29.2225 5.50156 29.2121C5.25052 29.8163 4.50104 30.0194 4.02552 30.4246C3.70573 30.5366 3.26354 30.4783 3.05416 30.8001C2.9875 30.9064 2.76146 30.8314 2.84427 31.0246C2.52864 31.2298 2.35416 31.6267 2.14062 31.9444C1.91614 32.1704 1.825 32.5048 1.93281 32.8059C1.80833 33.0366 1.51354 33.047 1.29531 33.1319C1.15625 33.46 0.901039 33.8126 0.560413 33.8876C0.741142 34.0975 0.396351 34.0871 0.400517 34.2678C0.500519 34.3902 0.359371 34.5126 0.255207 34.5647C0.184895 34.6746 0.159893 34.8158 0.0890617 34.9298V34.9882C0.211975 34.9152 0.186977 35.1564 0.0890617 35.1397V35.1585C0.164059 35.5486 0.624996 35.5486 0.957291 35.4986C0.940624 36.1882 -3.8147e-06 36.5595 0.205727 37.2887C0.500519 37.4939 0.840622 37.2887 1.10885 37.1392C3.37395 35.6876 5.81094 34.5251 8.26927 33.4413C9.25781 32.9803 10.25 32.5298 11.2547 32.1085C11.5125 31.9652 11.8198 32.0668 12.0854 31.9402C12.3406 31.8262 12.6187 31.7866 12.8927 31.7428C12.8328 32.0251 12.5464 32.2475 12.6 32.5736C12.4797 32.6626 12.4094 32.7913 12.3406 32.922C12.0479 33.0611 11.9875 33.4288 11.7552 33.6283C11.3589 33.7777 11.0016 34.0538 10.8479 34.4585C10.8625 34.546 11.0453 34.5147 11.0078 34.6392C10.9021 34.8902 10.7214 35.1147 10.6609 35.3845C10.738 35.5527 10.9807 35.5215 11.1302 35.5069C11.1281 35.7251 10.8625 35.8371 10.8729 36.0637C10.8146 36.1986 10.9849 36.2298 11.0719 36.2382C11.313 36.0303 11.6844 36.0553 11.9917 35.997C12.0437 36.2564 11.4021 36.0908 11.5432 36.3876C11.3339 36.4684 11.0536 36.398 10.8979 36.5908C10.4141 37.1246 9.87604 37.6126 9.37187 38.121C9.46093 38.3908 9.10625 38.3121 8.97708 38.447C8.79271 38.6444 8.71146 38.9371 8.46458 39.0741C8.34843 39.1382 8.25885 39.2382 8.2526 39.3772C8.02656 39.5288 7.92448 39.7986 7.68802 39.9439C7.67135 40.2017 7.34531 40.2241 7.33698 40.4611C7.12135 40.6579 7.06302 40.9553 6.90937 41.1939C7.09427 41.1605 7.2375 40.984 7.43281 41.0111C7.47604 41.1147 7.40156 41.1897 7.32448 41.2397C7.04219 41.6236 6.65625 41.9454 6.43177 42.3772C5.88802 42.8423 5.54948 43.5194 5.36875 44.1939C5.64948 44.2085 5.84843 43.9366 6.10208 43.9178C6.10781 44.2501 5.64948 44.3392 5.61823 44.6757C5.35833 44.9184 5.11979 45.1949 4.95989 45.5147C4.40989 46.1496 3.81614 46.76 3.37395 47.4809C3.21406 47.7465 3.3427 48.0684 3.25521 48.3486H3.27396C3.37604 48.2965 3.56458 48.1137 3.63958 48.2819C3.74531 47.9871 4.02969 47.8272 4.21666 47.5887C4.50729 47.5908 4.53854 47.2439 4.6776 47.059C4.70677 46.9803 4.825 47.0324 4.8125 47.1132C6.48802 45.0475 8.37083 43.1559 10.2375 41.2605C10.3125 41.1918 10.4078 41.2564 10.3557 41.3559C9.70208 42.309 8.81927 43.0814 8.10312 43.9887C7.63177 44.6611 7.03385 45.2423 6.58541 45.9298C6.70625 46.1496 6.25364 46.2538 6.43177 46.4694C6.64375 46.4465 7.04844 45.9194 7.12135 46.3012C7.49271 46.0272 7.875 45.7178 8.34635 45.6928C8.58906 45.5954 8.80104 45.4376 9.02083 45.3007C9.22031 45.1616 9.31354 44.9085 9.52969 44.7918C9.84323 44.6033 9.98229 44.2272 10.3021 44.0507C10.7339 43.4861 11.2651 43.0022 11.7573 42.4913C11.9505 42.4335 12.075 42.2694 12.1953 42.122C13.024 41.5819 13.9 41.1272 14.6849 40.5418C15.2286 40.1954 15.725 39.7715 16.2646 39.423C18.1417 38.6319 20.0203 37.6642 21.3865 36.1152C21.9078 35.6048 22.2625 34.9507 22.7964 34.4522C23.2719 33.9189 23.6786 33.321 23.988 32.6772C24.1479 32.4178 24.3224 32.1663 24.5922 32.0126C25.3932 31.3132 26.1865 30.5824 26.799 29.7085C27.3286 29.5939 27.8849 29.7085 28.4057 29.5361C29.6115 29.3491 30.8068 29.0543 31.9469 28.6121C32.7833 28.3418 33.6042 27.9767 34.4859 27.8871C34.9865 27.6652 35.5365 27.6444 36.0651 27.5366C36.9016 27.5262 37.7802 27.3329 38.5807 27.6736C39.0786 27.6444 39.2505 28.2111 39.6812 28.3522C39.8359 28.1944 39.6109 28.0678 39.624 27.9038C39.7302 27.8626 39.8292 28.1345 39.8875 27.9954C39.8698 27.846 39.7292 27.7439 39.6839 27.6027C39.8229 27.5283 39.8839 27.709 39.9635 27.7876C40.1365 27.9725 39.938 28.1882 39.8677 28.3751C40.388 28.097 40.6161 27.4142 40.3672 26.8803C40.224 26.6168 40.1177 26.3366 39.9557 26.0829C39.7292 24.5507 38.5125 23.3116 37.1062 22.7486C36.2083 22.56 35.3823 22.1454 34.5589 21.7637C34.5073 21.5757 34.5068 21.3689 34.6052 21.1975C34.7089 20.721 34.8661 20.2512 35.1359 19.8418C35.4026 18.8751 36.1323 18.1444 36.7062 17.3642C37.5969 16.2616 38.5755 15.2111 39.6333 14.271C40.5448 13.4314 41.7432 12.9204 42.5031 11.9079C42.9969 11.6204 43.4557 11.2475 43.8724 10.8491C44.5026 10.3376 45.0411 9.72305 45.5214 9.07148C45.6156 8.82826 45.813 8.60794 46.087 8.58451C46.413 8.39492 46.6958 8.15326 47.0177 7.95326C47.263 7.70586 47.474 7.37513 47.775 7.21576C49.0031 6.05951 49.8255 4.4043 50 2.70065V2.61992C49.5141 2.56159 49.1932 3.0918 48.8047 3.22617C48.8734 2.80326 49.0776 2.39128 49.0995 1.95794C48.9828 1.89388 49.0344 1.75273 49.075 1.6543Z" fill="#E85102"/>
</g>
</svg>
