<svg width="1440" height="753" viewBox="0 0 1440 753" fill="none" xmlns="http://www.w3.org/2000/svg">
<g opacity="0.5">
<path d="M558.715 0L0.00126566 753" stroke="#B3B3B3"/>
<path d="M566.984 0L71.7218 753" stroke="#B3B3B3"/>
<path d="M575.256 0L133.769 753" stroke="#B3B3B3"/>
<path d="M583.529 0L188.449 753" stroke="#B3B3B3"/>
<path d="M591.799 0L237.391 753" stroke="#B3B3B3"/>
<path d="M600.068 0L281.797 753" stroke="#B3B3B3"/>
<path d="M608.34 0L322.565 753" stroke="#B3B3B3"/>
<path d="M616.613 0L360.38 753" stroke="#B3B3B3"/>
<path d="M624.883 0L395.772 753" stroke="#B3B3B3"/>
<path d="M633.154 0L429.171 753" stroke="#B3B3B3"/>
<path d="M641.424 0L460.916 753" stroke="#B3B3B3"/>
<path d="M649.697 0L491.294 753" stroke="#B3B3B3"/>
<path d="M657.967 0L520.531 753" stroke="#B3B3B3"/>
<path d="M666.238 0L548.831 753" stroke="#B3B3B3"/>
<path d="M674.51 0L576.362 753" stroke="#B3B3B3"/>
<path d="M682.781 0L603.274 753" stroke="#B3B3B3"/>
<path d="M691.053 0L629.698 753" stroke="#B3B3B3"/>
<path d="M699.322 0L655.753 753" stroke="#B3B3B3"/>
<path d="M707.594 0L681.553 753" stroke="#B3B3B3"/>
<path d="M715.865 0L707.202 753" stroke="#B3B3B3"/>
<path d="M724.137 0L732.8 753" stroke="#B3B3B3"/>
<path d="M732.408 0L758.449 753" stroke="#B3B3B3"/>
<path d="M740.68 0L784.249 753" stroke="#B3B3B3"/>
<path d="M748.949 0L810.304 753" stroke="#B3B3B3"/>
<path d="M757.221 0L836.728 753" stroke="#B3B3B3"/>
<path d="M765.492 0L863.64 753" stroke="#B3B3B3"/>
<path d="M773.764 0L891.171 753" stroke="#B3B3B3"/>
<path d="M782.033 0L919.469 753" stroke="#B3B3B3"/>
<path d="M790.307 0L948.71 753" stroke="#B3B3B3"/>
<path d="M798.578 0L979.086 753" stroke="#B3B3B3"/>
<path d="M806.848 0L1010.83 753" stroke="#B3B3B3"/>
<path d="M815.117 0L1044.23 753" stroke="#B3B3B3"/>
<path d="M823.391 0L1079.62 753" stroke="#B3B3B3"/>
<path d="M831.662 0L1117.44 753" stroke="#B3B3B3"/>
<path d="M839.932 0L1158.2 752.999" stroke="#B3B3B3"/>
<path d="M848.203 0L1202.61 752.999" stroke="#B3B3B3"/>
<path d="M856.475 0L1251.56 752.999" stroke="#B3B3B3"/>
<path d="M864.746 0L1306.23 752.999" stroke="#B3B3B3"/>
<path d="M873.016 0L1368.28 752.999" stroke="#B3B3B3"/>
<path d="M881.289 0L1440 752.999" stroke="#B3B3B3"/>
<path d="M558.715 0H881.288" stroke="#B3B3B3"/>
<path d="M558.715 0H881.288" stroke="#B3B3B3"/>
<path d="M558.715 0H881.288" stroke="#B3B3B3"/>
<path d="M558.715 0H881.288" stroke="#B3B3B3"/>
<path d="M558.715 0H881.288" stroke="#B3B3B3"/>
<path d="M558.713 0H881.287" stroke="#B3B3B3"/>
<path d="M558.713 0.00172445H881.289" stroke="#B3B3B3"/>
<path d="M558.711 0.00446529H881.291" stroke="#B3B3B3"/>
<path d="M558.705 0.0105857H881.296" stroke="#B3B3B3"/>
<path d="M558.693 0.0257585H881.306" stroke="#B3B3B3"/>
<path d="M558.672 0.0550455H881.327" stroke="#B3B3B3"/>
<path d="M558.635 0.106562H881.367" stroke="#B3B3B3"/>
<path d="M558.568 0.196541H881.433" stroke="#B3B3B3"/>
<path d="M558.459 0.343682H881.543" stroke="#B3B3B3"/>
<path d="M558.283 0.578331H881.715" stroke="#B3B3B3"/>
<path d="M558.02 0.937538H881.984" stroke="#B3B3B3"/>
<path d="M557.621 1.47247H882.38" stroke="#B3B3B3"/>
<path d="M557.043 2.25122H882.958" stroke="#B3B3B3"/>
<path d="M556.221 3.35954H883.779" stroke="#B3B3B3"/>
<path d="M555.074 4.9047H884.926" stroke="#B3B3B3"/>
<path d="M553.504 7.0236H886.5" stroke="#B3B3B3"/>
<path d="M551.381 9.88208H888.62" stroke="#B3B3B3"/>
<path d="M548.559 13.6866H891.443" stroke="#B3B3B3"/>
<path d="M544.854 18.6827H895.151" stroke="#B3B3B3"/>
<path d="M540.041 25.1664H899.961" stroke="#B3B3B3"/>
<path d="M533.863 33.4906H906.136" stroke="#B3B3B3"/>
<path d="M526.012 44.0713H913.985" stroke="#B3B3B3"/>
<path d="M516.127 57.3969H923.876" stroke="#B3B3B3"/>
<path d="M503.779 74.0369H936.221" stroke="#B3B3B3"/>
<path d="M488.484 94.6518H951.518" stroke="#B3B3B3"/>
<path d="M469.674 120.003H970.328" stroke="#B3B3B3"/>
<path d="M446.701 150.964H993.302" stroke="#B3B3B3"/>
<path d="M418.824 188.535H1021.18" stroke="#B3B3B3"/>
<path d="M385.201 233.852H1054.8" stroke="#B3B3B3"/>
<path d="M344.873 288.201H1095.13" stroke="#B3B3B3"/>
<path d="M296.768 353.036H1143.24" stroke="#B3B3B3"/>
<path d="M239.668 429.992H1200.34" stroke="#B3B3B3"/>
<path d="M172.213 520.9H1267.79" stroke="#B3B3B3"/>
<path d="M92.8887 627.809H1347.11" stroke="#B3B3B3"/>
<path d="M0 753H1440" stroke="#B3B3B3"/>
</g>
</svg>
