<svg width="50" height="50" viewBox="0 0 50 50" fill="none" xmlns="http://www.w3.org/2000/svg">
<g clip-path="url(#clip0_1279_41)">
<rect width="50" height="50" fill="#272727"/>
<path d="M55 -5H-5V55H55V-5Z" fill="white"/>
<path d="M55 -5H-5V55H55V-5Z" fill="#F9F9F9"/>
<mask id="mask0_1279_41" style="mask-type:luminance" maskUnits="userSpaceOnUse" x="1" y="0" width="48" height="50">
<path d="M1.46875 0.535156H48.6635V49.4352H1.46875V0.535156Z" fill="white"/>
</mask>
<g mask="url(#mask0_1279_41)">
<path d="M48.4666 26.5355C47.4588 26.5189 46.5353 27.1069 45.5103 27.1236C44.9057 27.1402 44.5531 26.7876 43.9989 26.6194C43.4781 26.4684 42.9239 26.4684 42.403 26.4178C41.9327 26.3678 41.4458 26.334 40.9921 26.2335C40.5051 26.1157 40.1187 25.8131 39.6656 25.6116C39.5812 25.5782 39.4973 25.5444 39.4135 25.5111C39.4301 25.4272 39.4301 25.3262 39.4468 25.2423C39.4973 24.671 39.514 24.1168 39.4973 23.546C40.0348 23.7475 40.6562 23.7475 41.2609 23.5793C41.7984 23.4282 42.2687 23.1256 42.7557 22.8569C43.1421 22.6387 43.5286 22.5381 43.965 22.4538C44.8723 22.2694 45.5775 22.6387 46.2161 23.2939C46.2999 23.3777 46.451 23.2939 46.4176 23.1762C46.2161 22.2355 45.4098 21.4798 44.5697 21.0434C43.3103 20.3881 42.1682 20.8918 40.9754 21.4293C40.7572 21.5303 40.5557 21.5975 40.3202 21.6142C40.102 21.6309 40.1359 21.5809 40.0015 21.4293C39.7155 21.0934 39.3796 20.8079 38.9937 20.6569C38.9265 20.472 38.8593 20.2871 38.7749 20.1027C38.2879 18.9772 37.5322 17.9527 36.6926 17.0454C37.4817 17.0454 38.2374 16.8611 38.876 16.2564C39.2119 15.9371 39.4468 15.534 39.7494 15.1814C40.0515 14.8454 40.4213 14.7611 40.8577 14.6772C41.3114 14.61 41.765 14.6267 42.2187 14.5595C42.6718 14.5095 43.1421 14.3246 43.5619 14.1397C43.6796 14.0892 43.6291 13.9381 43.5286 13.9048C42.4536 13.535 41.4796 12.897 40.2869 12.9137C39.6656 12.9303 39.0609 13.0986 38.54 13.4678C38.0531 13.8038 37.7671 14.3246 37.3473 14.7111C36.9781 15.047 36.4067 14.9293 35.9364 14.8788C35.4161 14.8282 34.8952 14.8116 34.3911 14.8954C33.7864 14.4085 33.165 13.972 32.5098 13.5517C32.7114 13.3673 32.9468 13.2157 33.2994 13.1657C34.3911 12.9809 35.5671 13.0314 36.2557 11.9897C36.5583 11.5194 36.6421 10.9991 36.6926 10.4444C36.726 10.0079 36.7093 9.52096 37.0286 9.18502C37.4817 8.68085 38.3046 8.37877 38.9093 8.14335C39.5478 7.89127 40.1692 7.67304 40.7572 7.30377C40.8749 7.23658 40.8244 7.05169 40.69 7.05169C39.9343 7.06835 39.2286 7.30377 38.5062 7.522C37.801 7.74023 37.0786 7.8746 36.3567 8.0595C35.6676 8.22721 35.2478 8.63033 34.9958 9.28554C34.8447 9.70533 34.8447 10.3272 34.5593 10.6798C34.3239 10.9819 33.7697 10.9652 33.4171 10.9991C32.7786 11.0829 32.1572 11.1835 31.6197 11.5366C31.2338 11.7881 30.8978 12.1241 30.6458 12.5105C30.1921 12.2923 29.7385 12.0907 29.2682 11.9059C29.3692 11.6032 29.4697 11.3012 29.5708 11.0157C29.8562 10.1756 30.0577 9.4871 30.7635 8.93294C31.4687 8.37877 32.0228 7.89127 32.4426 7.08502C32.8124 6.37981 33.0473 5.75846 33.0473 4.95221C33.0473 4.8345 32.8963 4.8345 32.8629 4.91835C32.1406 6.74908 29.9739 6.71575 28.6468 7.85794C27.9077 8.49596 27.6728 9.52096 27.3869 10.4111C27.3031 10.6798 27.2192 10.9486 27.1353 11.2173C27.0682 11.2006 26.9838 11.1835 26.9166 11.1668C26.5473 11.0663 26.1609 10.9991 25.7916 10.9486C25.7244 10.26 25.3885 9.672 24.7838 9.28554C24.7499 9.26887 24.6999 9.21835 24.6661 9.18502C24.7166 9.05065 24.7499 8.9496 24.8676 8.81523C25.3546 8.26106 25.9765 7.85794 26.3963 7.23658C26.8161 6.61471 27.0176 5.82564 26.7994 5.10325C26.5473 4.297 25.9593 4.04492 25.3046 3.65898C24.4312 3.13815 24.7166 1.52565 25.2874 0.887104C25.3885 0.769916 25.2874 0.5345 25.1197 0.601687C24.1286 0.988145 23.5072 1.92877 23.5744 2.9871C23.6077 3.50742 23.7421 4.1121 24.0109 4.56575C24.2124 4.91835 24.7499 5.27148 24.5822 5.70794C24.364 6.29596 23.6416 6.64856 23.2218 7.08502C22.6843 7.65637 22.2812 8.36158 22.2473 9.15117C22.214 9.87356 22.4994 10.5288 23.0202 10.9819C22.6171 11.0491 22.214 11.1668 21.8275 11.3012C21.6093 11.335 21.3906 11.385 21.1557 11.4355C21.0213 11.2006 20.8364 10.9991 20.652 10.8475C20.3661 10.596 20.0301 10.3944 19.6609 10.2767C19.476 10.2262 19.2577 10.1928 19.0728 10.1756C19.0057 10.1756 18.4515 10.1928 18.4176 10.159C18.3171 10.0413 18.6192 9.62148 18.7036 9.47044C19.0223 8.79856 19.2577 8.0595 19.0057 7.32044C18.7536 6.54752 18.0145 6.19492 17.2421 6.17825C16.9395 6.17825 16.7885 6.19492 16.5536 5.97669C16.3182 5.75846 16.1838 5.47304 16.0661 5.17044C15.8984 4.73398 15.7807 4.34752 15.7807 3.87721C15.7807 3.49075 15.7807 3.12148 15.6968 2.73502C15.6635 2.58398 15.4619 2.58398 15.3947 2.70117C14.6723 3.84335 14.5041 5.57356 15.3442 6.69908C15.7135 7.20273 16.2176 7.522 16.7885 7.77408C16.8051 7.77408 16.9228 7.82408 16.99 7.85794C16.99 7.8746 16.9734 7.90846 16.9734 7.92512C16.8895 8.17721 16.7213 8.39544 16.5702 8.63033C15.7135 9.99127 16.0661 11.9059 17.7458 12.4434C17.9978 12.5272 18.2666 12.5272 18.5187 12.5272C17.5275 13.0986 16.6208 13.8038 15.8645 14.5428C15.7807 14.6267 15.7135 14.6939 15.6296 14.7782C15.4786 14.5595 15.3775 14.3079 15.3442 14.022C15.2937 13.6361 15.4619 13.3001 15.2937 12.9137C15.1426 12.5439 14.8067 12.2923 14.4541 12.1241C13.715 11.7715 12.8916 11.8892 12.1697 12.1913C11.7999 12.3423 11.4473 12.5611 11.0775 12.7288C10.9603 12.7793 10.8426 12.8298 10.7083 12.8631C10.6577 12.8798 10.5572 12.8798 10.5572 12.897C10.2046 12.7121 10.4228 11.721 10.4562 11.4522C10.54 10.6293 10.5234 9.73919 10.0197 9.03346C9.61659 8.46262 8.8942 8.14335 8.27284 7.90846C7.98742 7.79075 7.8192 8.16002 7.92024 8.37877C8.1218 8.81523 8.28951 9.25221 8.45774 9.70533C8.64211 10.26 8.67597 10.6293 8.55826 11.2006C8.37336 12.1241 8.22232 13.1319 8.7093 14.0053C9.26399 14.9798 10.3723 15.2986 11.4135 15.0131C11.951 14.8788 12.4046 14.5595 12.8916 14.3413C12.976 14.2907 13.0765 14.2741 13.1603 14.2407C13.2614 15.097 13.614 15.9032 14.1853 16.5251C13.614 17.3142 13.127 18.171 12.6734 19.0611C12.2702 18.8262 11.8838 18.5741 11.464 18.3892C10.7083 18.0366 9.93586 18.0199 9.1968 18.4059C8.7093 18.6579 8.32336 19.0777 7.92024 19.4475C7.83586 19.5147 7.75201 19.5819 7.68482 19.6657C7.80253 19.548 7.51711 19.7329 7.68482 19.6824C7.61763 19.6996 7.5843 19.7835 7.53378 19.7163C7.53378 19.7163 7.60097 19.6824 7.61763 19.6996C7.34888 19.2626 7.2817 18.7923 7.18117 18.2715C7.06347 17.6168 6.87857 16.9282 6.34107 16.4746C5.71972 15.9538 5.06451 15.9704 4.30878 16.0376C4.0567 16.0548 3.92232 16.3402 4.09055 16.5418C4.52701 17.0288 5.04784 17.3647 5.18222 18.0366C5.31659 18.6746 5.19888 19.3465 5.36711 19.985C5.75305 21.4965 7.24836 22.5215 8.74315 21.7319C9.2468 21.4631 9.64992 21.0262 10.0702 20.6569C10.1874 20.5559 10.3385 20.4553 10.389 20.4553C10.4057 20.4553 10.4228 20.4553 10.4395 20.4553C10.4057 20.4553 10.3385 20.4553 10.4228 20.4887C10.5739 20.5392 10.7083 20.623 10.8426 20.7074C11.0947 20.8418 11.4135 21.0095 11.7666 21.1944C11.4978 21.9168 11.2624 22.6387 11.0609 23.3611C11.0103 23.5288 10.9603 23.7137 10.9098 23.8986C10.4228 23.9319 9.95253 24.1168 9.5494 24.4694C9.14628 24.8225 8.91086 25.3095 8.57492 25.7126C8.59211 25.696 8.54159 25.746 8.50774 25.7798C8.45774 25.7293 8.3567 25.6288 8.32336 25.5949C7.88638 25.1079 7.53378 24.5871 6.92909 24.2678C6.24055 23.8986 5.46763 23.848 4.7119 24.0163C3.2843 24.335 2.22597 25.6288 1.50357 26.821C1.40305 26.9892 1.60461 27.1569 1.75565 27.073C2.89784 26.4684 4.0067 25.6454 5.36711 26.0319C5.90461 26.1829 6.17336 26.5189 6.52597 26.9387C6.92909 27.409 7.3994 27.8454 8.00409 28.0137C9.07909 28.2991 9.76763 27.6944 10.3557 26.9725C10.3051 27.6444 10.2885 28.3157 10.3218 28.9876C9.93586 29.1892 9.58274 29.4413 9.29732 29.6934C9.07909 29.8949 8.67597 30.3486 8.40722 30.298C8.22232 30.2814 8.00409 30.0798 7.85305 29.9788C7.56711 29.7772 7.2817 29.6095 6.96242 29.4918C6.34107 29.2564 5.6692 29.2564 5.04784 29.4918C4.3593 29.7605 3.83847 30.3314 3.40201 30.9194C2.69628 31.8939 2.49472 33.0861 1.57076 33.8756C1.4869 33.9428 1.52076 34.1105 1.63794 34.1444C2.62909 34.3293 3.53638 33.6069 4.19107 32.9689C4.5942 32.5824 4.91347 32.0616 5.41711 31.8095C5.88742 31.5746 6.05565 31.5913 6.47545 31.8767C7.55045 32.5991 8.67597 33.0189 9.86867 32.2298C10.1874 32.0111 10.4562 31.7423 10.7416 31.4907C10.9265 32.0954 11.1447 32.6829 11.4473 33.2543C11.6489 33.6402 11.8838 34.01 12.1359 34.3626C12.1192 34.4803 12.0853 34.5809 12.0687 34.6147C11.9848 34.6819 11.565 34.5809 11.4307 34.5642C11.0609 34.5308 10.6744 34.5308 10.3051 34.5809C8.77649 34.7657 7.19784 35.9079 7.2817 37.6215C7.33222 38.4105 8.1218 38.8809 8.05461 39.6538C7.98742 40.3423 7.55045 40.9803 7.02961 41.4173C6.91242 41.5178 7.0468 41.6694 7.16399 41.6522C8.27284 41.4678 8.97805 40.4262 8.97805 39.3345C8.97805 38.7465 8.91086 38.2262 9.1968 37.6715C9.44836 37.2012 10.003 36.9496 10.5067 36.8652C11.1619 36.748 11.7999 36.9663 12.4551 36.8486C12.9588 36.748 13.3958 36.496 13.715 36.1095C14.3197 36.647 14.9744 37.1173 15.6801 37.5204C15.4114 38.1418 15.2265 38.7637 15.4447 39.435C15.5119 39.6199 15.5963 39.771 15.6801 39.9225C15.7135 39.9725 15.7301 40.0064 15.764 40.0569C15.6968 40.1407 15.5791 40.2413 15.5119 40.3085C14.6557 41.0475 13.4963 41.5012 13.4463 42.8116C13.4291 43.3152 13.6307 43.8527 13.9499 44.2225C14.1182 44.4236 14.353 44.5751 14.4369 44.8267C14.5713 45.1626 14.3364 45.5829 14.202 45.885C14.1682 45.9689 14.2859 46.0699 14.353 46.0027C14.7057 45.734 15.0416 45.4314 15.1593 44.9782C15.277 44.4741 15.1088 44.1215 14.9244 43.6512C14.8234 43.3824 14.84 43.4329 15.0249 43.2819C15.2265 43.1137 15.4786 42.9793 15.7135 42.8449C16.2343 42.5428 16.7379 42.2907 17.1749 41.871C17.6452 41.4173 18.0145 40.8293 18.0484 40.1574C18.065 39.8381 18.0145 39.5361 17.8973 39.2506C17.8468 39.0991 17.7796 38.948 17.6786 38.8137C17.6452 38.7637 17.6114 38.7298 17.6114 38.7131C17.6114 38.646 17.6286 38.5788 17.6452 38.5116C18.1322 38.7131 18.6192 38.8809 19.1067 39.0319C19.7281 39.2168 20.3494 39.3678 20.9874 39.4855C21.0885 39.7376 21.189 39.9559 21.2734 40.1574C21.4077 40.46 21.5754 40.7288 21.7603 40.9975C21.8275 41.098 21.8947 41.1819 21.9619 41.2829C22.0124 41.3501 22.0458 41.4173 22.0963 41.4845C22.0796 41.4506 22.0624 41.4173 22.0458 41.4006C21.878 41.871 21.4916 42.2907 21.2228 42.7105C20.6015 43.6512 20.1817 44.8267 20.7359 45.9189C20.9874 46.4059 21.4577 46.7251 21.6093 47.2793C21.7603 47.8335 21.7937 48.5392 21.6426 49.0767C21.5754 49.2949 21.8609 49.4626 22.0124 49.2949C22.852 48.4215 23.1208 47.397 22.9025 46.1876C22.8187 45.734 22.4827 45.1965 22.5161 44.7428C22.5499 44.2892 22.9531 43.8361 23.1879 43.4663C23.5072 42.996 23.8432 42.4923 23.9942 41.9381C24.1958 41.2157 23.9775 40.6277 23.5577 40.0569C23.4734 39.9559 23.4062 39.8381 23.339 39.721C24.1958 39.7376 25.0525 39.7038 25.9093 39.5866C25.7577 40.6111 26.3624 41.8038 26.7994 42.66C27.1182 43.2819 27.3536 43.8694 27.4713 44.5579C27.6057 45.3814 27.8744 46.0866 28.1765 46.8595C28.2603 47.0777 28.5463 47.1449 28.6807 46.9267C29.0666 46.2881 29.4531 45.6668 29.5202 44.9111C29.6041 44.1215 29.3692 43.3319 29.0666 42.6267C28.7978 42.0053 28.4286 41.4173 28.1598 40.796C27.9416 40.2585 27.9077 39.7376 27.9416 39.1663C28.2942 39.0658 28.6301 38.9647 28.9661 38.8475C29.201 39.5866 29.6885 40.1574 30.3432 40.6111C30.6624 40.8293 30.9312 40.9637 31.1327 41.2996C31.4015 41.7533 31.5359 42.2907 31.7879 42.7444C32.2916 43.7184 33.014 44.6423 33.1317 45.7673C33.1484 45.9689 33.4338 46.0361 33.501 45.8178C34.1395 43.9199 33.9879 41.9548 33.014 40.1913C32.7786 39.771 32.4598 39.4184 32.0567 39.1329C31.7541 38.9147 31.351 38.7637 31.1327 38.4611C31.015 38.31 30.965 38.1418 30.9478 37.9741C31.9223 37.4699 32.8629 36.8652 33.7192 36.1434C33.8708 36.6975 34.1223 37.2517 34.5593 37.6548C34.8447 37.9236 35.1973 38.0746 35.5838 38.1418C35.651 38.159 35.7182 38.1756 35.7853 38.1756C35.802 38.1923 35.802 38.209 35.8192 38.2428C35.8359 38.4444 36.0208 38.7298 36.1046 38.8975C36.5916 39.9559 37.364 40.8631 38.0531 41.7866C38.1536 41.921 38.4223 41.9043 38.4057 41.6861C38.3218 40.4934 38.2713 39.2673 37.9353 38.1085C37.7843 37.571 37.6161 36.9829 37.1963 36.5798C36.877 36.2777 36.2223 36.059 35.8864 36.1095C35.8864 36.1095 35.8864 36.1095 35.8692 36.1095C35.802 36.0256 35.7182 35.8407 35.7015 35.7902C35.6004 35.5387 35.4661 35.2194 35.3489 34.9168C35.315 34.8329 35.2817 34.7491 35.2478 34.6652C35.4833 34.4131 35.7015 34.1444 35.9197 33.8756C36.239 33.4725 36.5411 33.0527 36.8098 32.6157C37.0286 32.8845 37.2968 33.1032 37.6161 33.2204C37.8515 33.3043 38.0864 33.3215 38.3385 33.3043C38.389 33.3043 38.8254 33.1871 38.9432 33.1366C38.9765 33.1532 39.0437 33.1871 39.0942 33.2543C39.1952 33.3548 39.2791 33.4725 39.3629 33.573C39.6484 33.9428 39.9171 34.2954 40.2869 34.5809C41.1437 35.2527 42.2187 35.0345 43.1588 35.4881C43.226 35.5215 43.2932 35.572 43.3603 35.6059C43.3942 35.6225 43.4614 35.673 43.5119 35.6897C43.5452 35.7402 43.6124 35.8241 43.6629 35.8407C43.9317 35.9418 44.1166 35.7064 44.2338 35.5215C44.889 34.5137 43.8645 33.5059 42.9072 33.2371C42.4869 33.1199 41.9327 33.1704 41.5635 32.9184C41.278 32.7335 41.0593 32.347 40.8411 32.0782C40.2364 31.3225 39.4301 30.8689 38.439 31.1376C38.4223 31.1376 38.3718 31.1548 38.3046 31.1881C38.2713 31.0371 38.1536 30.8189 38.1031 30.6845C38.0697 30.6001 38.0359 30.5163 38.0025 30.4324C38.4223 29.4918 38.7583 28.5173 38.9937 27.5267C39.3296 27.7282 39.615 27.9631 40.0015 28.1142C40.9083 28.4501 42.0504 28.5345 43.0077 28.6017C43.5452 28.635 44.0494 28.5678 44.5364 28.3157C45.0234 28.0642 45.4603 27.9465 45.9978 27.8121C46.8208 27.5939 47.8286 27.3085 48.4833 26.7204C48.601 26.6366 48.5504 26.5355 48.4666 26.5355Z" fill="#E85102"/>
</g>
</g>
<defs>
<clipPath id="clip0_1279_41">
<rect width="50" height="50" fill="white"/>
</clipPath>
</defs>
</svg>
