<svg width="246" height="43" viewBox="0 0 246 43" fill="none" xmlns="http://www.w3.org/2000/svg">
<path d="M73.4597 34.1801V8.81152H88.9084C90.2109 8.81152 91.3808 9.06971 92.4428 9.58607C93.4965 10.1024 94.3345 10.827 94.965 11.7681C95.5873 12.7009 95.9025 13.8003 95.9025 15.0579C95.9025 16.1656 95.7117 17.115 95.3301 17.8979C94.9484 18.6891 94.4506 19.3221 93.8201 19.8218C93.1978 20.3132 92.4926 20.6796 91.7044 20.9295V21.0794C92.6087 21.2793 93.4301 21.6291 94.1685 22.1288C94.9069 22.6368 95.4877 23.3198 95.9191 24.1776C96.3506 25.0354 96.5663 26.0848 96.5663 27.3174C96.5663 28.7666 96.2261 30.0075 95.5375 31.0319C94.8489 32.0563 93.9445 32.8392 92.8161 33.3806C91.6878 33.9219 90.4267 34.1968 89.0245 34.1968H73.4597V34.1801ZM80.0391 18.8973H86.6267C87.166 18.8973 87.6223 18.7891 88.004 18.5642C88.3857 18.3393 88.676 18.0312 88.8835 17.6397C89.0909 17.2483 89.1987 16.7819 89.1987 16.2405C89.1987 15.4493 88.9664 14.8414 88.5018 14.3916C88.0372 13.9502 87.4481 13.7253 86.7346 13.7253H80.0391V18.8973ZM80.0391 29.0831H87.2075C87.9957 29.0831 88.6263 28.8499 89.0992 28.3835C89.5804 27.9171 89.8127 27.2008 89.8127 26.2431C89.8127 25.7267 89.7048 25.2686 89.4974 24.8605C89.29 24.4524 88.983 24.1443 88.5765 23.9194C88.1699 23.6945 87.6721 23.5863 87.0831 23.5863H80.0225V29.0831H80.0391Z" fill="#1B1A19"/>
<path d="M99.719 34.1801V8.81152H106.307V34.1801H99.719Z" fill="#1B1A19"/>
<path d="M122.195 34.6215C118.121 34.6215 115.027 33.5388 112.911 31.3734C110.787 29.208 109.733 25.9099 109.733 21.4792C109.733 18.5475 110.256 16.1156 111.293 14.1834C112.339 12.2512 113.857 10.802 115.856 9.8276C117.856 8.85317 120.262 8.37012 123.083 8.37012C124.775 8.37012 126.368 8.57 127.862 8.96144C129.355 9.35288 130.683 9.93587 131.836 10.7188C132.989 11.4933 133.885 12.4677 134.524 13.6337C135.163 14.7997 135.478 16.1739 135.478 17.748H129.007C129.007 17.0817 128.858 16.4904 128.567 15.9574C128.277 15.4243 127.862 14.9829 127.331 14.6248C126.8 14.2667 126.194 14.0002 125.514 13.8086C124.825 13.6254 124.103 13.5338 123.34 13.5338C122.212 13.5338 121.216 13.6837 120.345 13.9752C119.474 14.2667 118.76 14.7248 118.196 15.3411C117.632 15.9574 117.209 16.7069 116.927 17.5898C116.645 18.4726 116.504 19.5136 116.504 20.688V22.312C116.504 23.8861 116.752 25.202 117.242 26.2597C117.732 27.3174 118.478 28.1086 119.466 28.6417C120.461 29.1747 121.681 29.4329 123.124 29.4329C124.253 29.4329 125.265 29.258 126.161 28.9165C127.057 28.575 127.771 28.0753 128.293 27.4174C128.824 26.7678 129.082 25.9849 129.082 25.0687V24.8855H122.278V20.2299H135.487V34.1468H131.662L131.04 31.49C130.276 32.1813 129.463 32.7559 128.592 33.2223C127.721 33.6887 126.767 34.0385 125.721 34.2551C124.659 34.5133 123.489 34.6215 122.195 34.6215Z" fill="#1B1A19"/>
<path d="M139.519 34.1801V8.81152H154.196C156.063 8.81152 157.614 9.16132 158.867 9.86091C160.12 10.5605 161.057 11.5266 161.68 12.7426C162.302 13.9585 162.617 15.3244 162.617 16.8235C162.617 18.4476 162.244 19.8967 161.497 21.1627C160.75 22.4286 159.697 23.4197 158.353 24.1359L163.43 34.1801H156.071L151.881 25.2436H146.106V34.1801H139.519ZM146.098 20.3382H152.902C153.806 20.3382 154.536 20.0383 155.092 19.4303C155.648 18.8307 155.922 18.0228 155.922 17.0151C155.922 16.3488 155.797 15.7825 155.557 15.3161C155.308 14.8497 154.967 14.4832 154.528 14.225C154.088 13.9669 153.549 13.8336 152.91 13.8336H146.106V20.3382H146.098Z" fill="#FF7700"/>
<path d="M178.024 34.6215C175.253 34.6215 172.88 34.1385 170.906 33.164C168.931 32.1896 167.421 30.7321 166.359 28.7916C165.305 26.851 164.774 24.4108 164.774 21.4792C164.774 18.5475 165.305 16.1156 166.359 14.1834C167.413 12.2512 168.931 10.802 170.906 9.8276C172.88 8.85317 175.253 8.37012 178.024 8.37012C180.795 8.37012 183.168 8.85317 185.143 9.8276C187.117 10.802 188.627 12.2512 189.689 14.1834C190.743 16.1156 191.274 18.5475 191.274 21.4792C191.274 24.4108 190.743 26.8427 189.689 28.7916C188.636 30.7404 187.117 32.1979 185.143 33.164C183.168 34.1385 180.795 34.6215 178.024 34.6215ZM178.024 29.4579C179.078 29.4579 180.007 29.2996 180.82 28.9748C181.633 28.6583 182.314 28.1836 182.861 27.5756C183.417 26.9593 183.824 26.2097 184.097 25.3269C184.363 24.4441 184.504 23.4447 184.504 22.337V20.7129C184.504 19.5803 184.371 18.5725 184.097 17.6814C183.824 16.7986 183.417 16.0407 182.861 15.4327C182.314 14.8164 181.625 14.35 180.82 14.0335C180.007 13.717 179.078 13.5504 178.024 13.5504C176.946 13.5504 176 13.7087 175.195 14.0335C174.382 14.35 173.71 14.8247 173.171 15.4327C172.631 16.049 172.225 16.7986 171.959 17.6814C171.685 18.5642 171.553 19.5803 171.553 20.7129V22.337C171.553 23.4447 171.685 24.4441 171.959 25.3269C172.225 26.2097 172.631 26.9676 173.171 27.5756C173.71 28.1919 174.382 28.6583 175.195 28.9748C176 29.2913 176.946 29.4579 178.024 29.4579Z" fill="#FF7700"/>
<path d="M206.167 34.6215C203.446 34.6215 201.131 34.1468 199.231 33.1973C197.331 32.2479 195.887 30.8071 194.908 28.8582C193.929 26.9177 193.44 24.4524 193.44 21.4708C193.44 17.09 194.535 13.8086 196.734 11.6349C198.924 9.45282 202.077 8.37012 206.167 8.37012C208.449 8.37012 210.473 8.76156 212.232 9.53611C213.999 10.3107 215.376 11.4683 216.372 13.0091C217.368 14.5499 217.865 16.4571 217.865 18.7474H211.427C211.427 17.6647 211.211 16.7319 210.78 15.9574C210.349 15.1828 209.751 14.5832 208.98 14.1667C208.208 13.7503 207.27 13.5421 206.167 13.5421C204.79 13.5421 203.67 13.8253 202.782 14.3916C201.902 14.958 201.247 15.7741 200.832 16.8319C200.417 17.8896 200.21 19.1722 200.21 20.6713V22.337C200.21 23.8361 200.417 25.127 200.832 26.1931C201.247 27.2675 201.894 28.0753 202.765 28.6333C203.636 29.1913 204.757 29.4662 206.134 29.4662C207.312 29.4662 208.308 29.2663 209.129 28.8749C209.95 28.4834 210.573 27.9004 211.004 27.1176C211.435 26.343 211.651 25.4102 211.651 24.3275H217.865C217.865 26.6178 217.384 28.5251 216.414 30.0492C215.443 31.5733 214.082 32.7226 212.331 33.4805C210.573 34.2384 208.515 34.6215 206.167 34.6215Z" fill="#FF7700"/>
<path d="M221.06 34.1801V8.81152H227.647V20.0716L237.653 8.81152H245.817L236.401 19.1888L246 34.1801H238.201L231.837 23.6945L227.647 27.5756V34.1884H221.06V34.1801Z" fill="#FF7700"/>
<path d="M33.7016 0C29.0471 0 24.9734 2.98993 23.5546 7.43734L21.0324 15.3494H17.1163C12.5779 15.3494 8.52911 18.2477 7.04398 22.5536L0 43H12.2129H36.4561H65.4368V0H33.7016Z" fill="white"/>
<path d="M23.5546 7.43734L21.0324 15.3494H17.1163C12.5779 15.3494 8.52911 18.2477 7.04398 22.5536L0 43H65.4368V0H33.7016C29.0471 0 24.9734 2.98993 23.5546 7.43734ZM2.71305 41.0595L8.86928 23.1865C10.0806 19.6552 13.3993 17.2899 17.1163 17.2899H20.4101L12.8268 41.0595H2.71305ZM63.5037 41.0595H14.8513L25.3882 8.02867C26.5497 4.38911 29.8934 1.94054 33.7016 1.94054H63.5037V41.0595Z" fill="#1B1A19"/>
<path d="M39.7748 13.3006H37.8416C37.8416 12.0513 36.8294 11.0352 35.5849 11.0352C34.3404 11.0352 33.3282 12.0513 33.3282 13.3006H31.395C31.395 10.9853 33.2701 9.10303 35.5766 9.10303C37.8997 9.10303 39.7748 10.9853 39.7748 13.3006Z" fill="#1B1A19"/>
<path d="M56.2938 13.3006H54.3607C54.3607 12.0513 53.3485 11.0352 52.1039 11.0352C50.8594 11.0352 49.8472 12.0513 49.8472 13.3006H47.9141C47.9141 10.9853 49.7891 9.10303 52.0956 9.10303C54.4022 9.10303 56.2938 10.9853 56.2938 13.3006Z" fill="#1B1A19"/>
<path d="M43.4253 27.9088V25.9683C47.6981 25.9683 51.1745 22.4786 51.1745 18.1895H53.0994C53.0994 23.553 48.7601 27.9088 43.4253 27.9088Z" fill="#1B1A19"/>
</svg>
